<svg width="900" height="900" viewBox="0 0 900 900" fill="none" xmlns="http://www.w3.org/2000/svg">
<rect width="900" height="900" fill="white"/>
<path d="M90 313C90 257.772 134.772 213 190 213H709C764.228 213 809 257.772 809 313H759C759 285.386 736.614 263 709 263H190C162.386 263 140 285.386 140 313H90ZM784 485H115H784ZM190 485C134.772 485 90 440.228 90 385V313C90 257.772 134.772 213 190 213V263C162.386 263 140 285.386 140 313V410C140 451.421 162.386 485 190 485ZM709 213C764.228 213 809 257.772 809 313V385C809 440.228 764.228 485 709 485C736.614 485 759 451.421 759 410V313C759 285.386 736.614 263 709 263V213Z" fill="black"/>
<circle cx="644" cy="238" r="12" fill="white"/>
<circle cx="680" cy="238" r="12" fill="white"/>
<circle cx="716" cy="238" r="12" fill="white"/>
<path d="M166.021 367V316.091H175.244V337.643H198.834V316.091H208.081V367H198.834V345.374H175.244V367H166.021ZM215.874 323.822V316.091H256.492V323.822H240.757V367H231.609V323.822H215.874ZM262.085 323.822V316.091H302.703V323.822H286.968V367H277.82V323.822H262.085ZM310.533 367V316.091H329.624C333.535 316.091 336.816 316.82 339.468 318.278C342.136 319.737 344.149 321.742 345.508 324.294C346.884 326.83 347.571 329.713 347.571 332.945C347.571 336.209 346.884 339.109 345.508 341.645C344.133 344.18 342.103 346.177 339.418 347.636C336.733 349.077 333.427 349.798 329.5 349.798H316.847V342.217H328.257C330.544 342.217 332.416 341.819 333.875 341.023C335.333 340.228 336.41 339.134 337.106 337.742C337.819 336.35 338.175 334.751 338.175 332.945C338.175 331.138 337.819 329.547 337.106 328.172C336.41 326.796 335.325 325.728 333.85 324.965C332.391 324.186 330.511 323.797 328.207 323.797H319.755V367H310.533ZM383.249 330.086C383.017 327.915 382.039 326.225 380.316 325.015C378.609 323.805 376.388 323.2 373.654 323.2C371.731 323.2 370.082 323.49 368.707 324.07C367.331 324.65 366.279 325.437 365.55 326.432C364.821 327.426 364.448 328.561 364.431 329.837C364.431 330.898 364.672 331.818 365.152 332.597C365.649 333.375 366.32 334.038 367.166 334.585C368.011 335.116 368.947 335.563 369.975 335.928C371.002 336.292 372.038 336.599 373.082 336.847L377.855 338.04C379.777 338.488 381.625 339.093 383.398 339.855C385.188 340.617 386.787 341.579 388.195 342.739C389.621 343.899 390.748 345.299 391.576 346.94C392.405 348.58 392.819 350.503 392.819 352.707C392.819 355.69 392.057 358.316 390.532 360.587C389.008 362.84 386.803 364.605 383.92 365.881C381.053 367.141 377.581 367.771 373.504 367.771C369.544 367.771 366.105 367.157 363.188 365.931C360.288 364.705 358.018 362.915 356.377 360.562C354.753 358.209 353.875 355.342 353.742 351.961H362.816C362.948 353.734 363.495 355.209 364.456 356.386C365.417 357.562 366.669 358.441 368.21 359.021C369.767 359.601 371.508 359.891 373.43 359.891C375.435 359.891 377.192 359.592 378.7 358.996C380.224 358.383 381.418 357.537 382.279 356.46C383.141 355.366 383.58 354.09 383.597 352.632C383.58 351.306 383.191 350.213 382.428 349.351C381.666 348.473 380.597 347.743 379.222 347.163C377.863 346.567 376.272 346.036 374.449 345.572L368.657 344.081C364.464 343.004 361.15 341.371 358.714 339.184C356.294 336.98 355.085 334.055 355.085 330.409C355.085 327.41 355.897 324.783 357.521 322.529C359.161 320.275 361.39 318.527 364.208 317.284C367.025 316.025 370.215 315.395 373.778 315.395C377.391 315.395 380.556 316.025 383.274 317.284C386.008 318.527 388.154 320.259 389.712 322.479C391.27 324.683 392.073 327.219 392.123 330.086H383.249ZM406.186 360.885C404.678 360.885 403.386 360.355 402.309 359.294C401.231 358.217 400.701 356.924 400.718 355.416C400.701 353.925 401.231 352.649 402.309 351.588C403.386 350.527 404.678 349.997 406.186 349.997C407.645 349.997 408.913 350.527 409.99 351.588C411.083 352.649 411.639 353.925 411.655 355.416C411.639 356.427 411.373 357.347 410.86 358.175C410.363 359.004 409.7 359.667 408.871 360.164C408.059 360.645 407.164 360.885 406.186 360.885ZM406.186 335.654C404.678 335.654 403.386 335.124 402.309 334.063C401.231 332.986 400.701 331.693 400.718 330.185C400.701 328.694 401.231 327.418 402.309 326.357C403.386 325.28 404.678 324.741 406.186 324.741C407.645 324.741 408.913 325.28 409.99 326.357C411.083 327.418 411.639 328.694 411.655 330.185C411.639 331.18 411.373 332.091 410.86 332.92C410.363 333.748 409.7 334.411 408.871 334.908C408.059 335.406 407.164 335.654 406.186 335.654ZM441.727 313.705L425.321 374.656H417.441L433.847 313.705H441.727ZM468.251 313.705L451.844 374.656H443.964L460.371 313.705H468.251ZM506.482 316.091H515.704V349.351C515.704 352.997 514.843 356.203 513.119 358.971C511.412 361.738 509.009 363.901 505.91 365.459C502.811 367 499.19 367.771 495.047 367.771C490.888 367.771 487.259 367 484.16 365.459C481.061 363.901 478.658 361.738 476.951 358.971C475.244 356.203 474.39 352.997 474.39 349.351V316.091H483.613V348.58C483.613 350.701 484.077 352.591 485.005 354.248C485.949 355.905 487.275 357.206 488.982 358.151C490.689 359.079 492.711 359.543 495.047 359.543C497.384 359.543 499.406 359.079 501.113 358.151C502.836 357.206 504.162 355.905 505.09 354.248C506.018 352.591 506.482 350.701 506.482 348.58V316.091ZM525.728 367V316.091H544.819C548.73 316.091 552.011 316.77 554.663 318.129C557.331 319.488 559.345 321.394 560.703 323.847C562.079 326.283 562.767 329.125 562.767 332.373C562.767 335.638 562.071 338.471 560.679 340.874C559.303 343.261 557.273 345.108 554.588 346.418C551.904 347.71 548.606 348.357 544.695 348.357H531.098V340.7H543.452C545.739 340.7 547.612 340.385 549.07 339.756C550.528 339.109 551.605 338.173 552.301 336.947C553.014 335.704 553.37 334.179 553.37 332.373C553.37 330.567 553.014 329.025 552.301 327.749C551.589 326.457 550.503 325.479 549.045 324.816C547.587 324.137 545.706 323.797 543.402 323.797H534.951V367H525.728ZM552.028 343.932L564.631 367H554.34L541.961 343.932H552.028ZM598.923 330.086C598.691 327.915 597.713 326.225 595.989 325.015C594.282 323.805 592.062 323.2 589.327 323.2C587.405 323.2 585.756 323.49 584.381 324.07C583.005 324.65 581.953 325.437 581.224 326.432C580.495 327.426 580.122 328.561 580.105 329.837C580.105 330.898 580.345 331.818 580.826 332.597C581.323 333.375 581.994 334.038 582.839 334.585C583.685 335.116 584.621 335.563 585.648 335.928C586.676 336.292 587.712 336.599 588.756 336.847L593.528 338.04C595.451 338.488 597.299 339.093 599.072 339.855C600.862 340.617 602.461 341.579 603.869 342.739C605.295 343.899 606.421 345.299 607.25 346.94C608.079 348.58 608.493 350.503 608.493 352.707C608.493 355.69 607.731 358.316 606.206 360.587C604.681 362.84 602.477 364.605 599.594 365.881C596.727 367.141 593.255 367.771 589.178 367.771C585.218 367.771 581.779 367.157 578.862 365.931C575.962 364.705 573.692 362.915 572.051 360.562C570.427 358.209 569.549 355.342 569.416 351.961H578.489C578.622 353.734 579.169 355.209 580.13 356.386C581.091 357.562 582.342 358.441 583.884 359.021C585.441 359.601 587.181 359.891 589.104 359.891C591.109 359.891 592.866 359.592 594.374 358.996C595.898 358.383 597.091 357.537 597.953 356.46C598.815 355.366 599.254 354.09 599.271 352.632C599.254 351.306 598.865 350.213 598.102 349.351C597.34 348.473 596.271 347.743 594.896 347.163C593.537 346.567 591.946 346.036 590.123 345.572L584.331 344.081C580.138 343.004 576.824 341.371 574.388 339.184C571.968 336.98 570.759 334.055 570.759 330.409C570.759 327.41 571.571 324.783 573.195 322.529C574.835 320.275 577.064 318.527 579.881 317.284C582.699 316.025 585.889 315.395 589.452 315.395C593.064 315.395 596.23 316.025 598.947 317.284C601.682 318.527 603.828 320.259 605.386 322.479C606.943 324.683 607.747 327.219 607.797 330.086H598.923ZM616.715 367V316.091H625.937V337.643H649.527V316.091H658.774V367H649.527V345.374H625.937V367H616.715ZM673.95 367.547C672.442 367.547 671.149 367.017 670.072 365.956C668.995 364.895 668.465 363.603 668.481 362.078C668.465 360.587 668.995 359.311 670.072 358.25C671.149 357.189 672.442 356.659 673.95 356.659C675.408 356.659 676.676 357.189 677.753 358.25C678.847 359.311 679.402 360.587 679.419 362.078C679.402 363.089 679.137 364.009 678.623 364.837C678.126 365.666 677.463 366.329 676.635 366.826C675.823 367.307 674.928 367.547 673.95 367.547ZM695.918 316.091L709.168 356.162H709.69L722.914 316.091H733.056L715.109 367H703.724L685.801 316.091H695.918ZM739.762 367V316.091H772.872V323.822H748.984V337.643H771.157V345.374H748.984V359.269H773.071V367H739.762Z" fill="black"/>
<path d="M300 164H606.5L536.5 412H368L300 164Z" fill="white"/>
<rect x="20" y="398" width="838" height="135" fill="white"/>
<circle cx="315.5" cy="595.5" r="125.5" fill="black"/>
<circle cx="316" cy="596" r="75" fill="white"/>
<path d="M358 501.703L558 178L505 363.5L411.63 536.629L358 501.703Z" fill="black"/>
<circle cx="125.5" cy="125.5" r="125.5" transform="matrix(-1 0 0 1 709.217 470)" fill="black"/>
<circle cx="75" cy="75" r="75" transform="matrix(-1 0 0 1 658.217 521)" fill="white"/>
<path d="M541.217 501.703L341.217 178L394.217 363.5L487.587 536.629L541.217 501.703Z" fill="black"/>
<circle cx="448" cy="398" r="14" fill="white"/>
</svg>
